<svg width="397" height="400" viewBox="0 0 397 400" fill="none" xmlns="http://www.w3.org/2000/svg">
<g filter="url(#filter0_f)">
<path d="M253.765 330.209C278.851 355.289 308.536 308.473 337.802 337.733C308.954 308.891 355.78 279.212 330.276 253.714C365.814 253.714 353.69 199.791 394.663 199.791C353.69 199.791 365.814 145.868 330.276 145.868C355.362 120.788 308.536 91.1093 337.802 61.8489C308.954 90.6913 279.269 43.8746 253.765 69.373C253.765 33.8424 199.831 45.9646 199.831 5C199.831 45.9646 145.897 33.8424 145.897 69.373V69.791C120.812 44.7106 91.1272 91.5273 61.8607 62.2669C90.7091 91.1093 43.8827 120.788 69.3863 146.286C33.8484 146.286 45.9731 200.209 5 200.209C45.9731 200.209 33.8484 254.132 69.3863 254.132C44.3008 279.212 91.1272 308.891 61.8607 338.151C90.7091 309.309 120.394 356.125 145.897 330.627C145.897 366.158 199.831 354.035 199.831 395C199.831 354.035 253.765 366.158 253.765 330.209Z" stroke="#F0EBF9" stroke-width="3" stroke-miterlimit="10" stroke-linecap="round" stroke-linejoin="round"/>
<path d="M199.831 304.711C209.866 329.373 243.731 305.547 255.438 333.553C243.731 305.547 284.286 298.441 274.252 273.778C298.919 283.81 306.027 243.264 334.039 254.968C306.027 243.264 329.44 209.405 305.191 199.373C329.858 189.341 306.027 155.482 334.039 143.778C306.027 155.482 298.919 114.936 274.252 124.968C284.286 100.306 243.731 93.1995 255.438 65.1931C243.731 93.1995 209.866 69.7911 199.831 94.0355C189.797 69.3731 155.932 93.1995 144.225 65.1931C155.932 93.1995 115.377 100.306 125.411 124.968C100.743 114.936 93.6357 155.482 65.6235 143.778C93.6357 155.482 70.2225 189.341 94.4719 199.373C70.2225 209.823 93.6357 243.264 65.6235 254.968C93.6357 243.264 100.743 283.81 125.411 273.778C115.377 298.441 155.932 305.547 144.225 333.553C155.513 305.547 189.379 329.373 199.831 304.711Z" stroke="#F0EBF9" stroke-width="3" stroke-miterlimit="10" stroke-linecap="round" stroke-linejoin="round"/>
<path d="M229.516 271.688C243.313 285.482 259.619 259.984 275.924 275.868C260.037 259.984 285.958 243.682 271.743 229.47C291.394 229.47 284.704 199.791 307.281 199.791C284.704 199.791 291.394 170.113 271.743 170.113C285.54 156.319 260.037 140.016 275.924 123.714C260.037 139.598 243.731 113.682 229.516 127.894C229.516 108.248 199.831 114.936 199.831 92.3635C199.831 114.936 170.147 108.248 170.147 127.894C156.35 114.1 140.044 139.598 123.738 123.714C139.626 139.598 113.704 155.901 127.919 170.113C108.269 170.113 114.958 199.791 92.3814 199.791C114.958 199.791 108.269 229.47 127.919 229.47C114.122 243.264 139.626 259.566 123.738 275.868C139.626 259.984 155.932 285.901 170.147 271.688C170.147 291.335 199.831 284.646 199.831 307.219C199.831 284.646 229.516 291.335 229.516 271.688Z" stroke="#F0EBF9" stroke-width="3" stroke-miterlimit="10" stroke-linecap="round" stroke-linejoin="round"/>
<path d="M199.831 258.312C205.685 272.106 224.499 258.73 230.77 274.614C224.081 258.73 247.076 254.968 241.222 241.174C255.02 247.026 258.782 224.035 274.67 230.723C258.782 224.035 272.161 205.225 258.364 199.791C272.161 193.939 258.782 175.129 274.67 168.858C258.782 175.547 255.02 152.556 241.222 158.408C247.076 144.614 224.081 140.852 230.77 124.968C224.081 140.852 205.266 127.476 199.831 141.27C193.978 127.476 175.164 140.852 168.892 124.968C175.582 140.852 152.587 144.614 158.44 158.408C144.643 152.556 140.88 175.547 124.993 168.858C140.88 175.547 127.501 194.357 141.298 199.791C127.501 205.643 140.88 224.453 124.993 230.723C140.88 224.035 144.643 247.026 158.44 241.174C152.587 254.968 175.582 258.73 168.892 274.614C175.164 258.73 193.978 272.106 199.831 258.312Z" stroke="#F0EBF9" stroke-width="3" stroke-miterlimit="10" stroke-linecap="round" stroke-linejoin="round"/>
<path d="M216.973 240.756C224.917 248.698 234.533 234.068 243.313 243.264C234.115 234.068 248.748 224.871 240.804 216.929C252.093 216.929 248.33 199.791 261.291 199.791C248.33 199.791 252.093 182.653 240.804 182.653C248.748 174.711 234.115 165.097 243.313 156.318C234.115 165.515 224.917 150.884 216.973 158.826C216.973 147.54 199.831 151.302 199.831 138.344C199.831 151.302 182.69 147.54 182.69 158.826C174.746 150.884 165.13 165.515 156.35 156.318C165.548 165.515 150.914 174.711 158.858 182.653C147.57 182.653 151.333 199.791 138.372 199.791C151.333 199.791 147.57 216.929 158.858 216.929C150.914 224.871 165.548 234.486 156.35 243.264C165.548 234.068 174.746 248.698 182.69 240.756C182.69 252.042 199.831 248.28 199.831 261.238C199.831 248.28 216.973 252.042 216.973 240.756Z" stroke="#F0EBF9" stroke-width="3" stroke-miterlimit="10" stroke-linecap="round" stroke-linejoin="round"/>
<path d="M199.831 234.067C203.176 242.01 214.047 234.485 217.809 243.682C214.047 234.485 227.426 231.977 224.081 224.035C232.025 227.379 234.533 214.003 243.731 217.765C234.533 214.003 242.477 202.717 234.115 199.373C242.059 196.029 234.533 185.161 243.731 181.399C234.533 185.161 232.025 171.785 224.081 175.129C227.426 167.186 214.047 164.678 217.809 155.482C214.047 164.678 202.758 156.736 199.413 165.096C196.069 157.154 185.198 164.678 181.435 155.482C185.198 164.678 171.819 167.186 175.164 175.129C167.22 171.785 164.712 185.161 155.514 181.399C164.712 185.161 156.768 196.447 165.13 199.791C157.186 203.135 164.712 214.003 155.514 217.765C164.712 214.003 167.22 227.379 175.164 224.035C171.819 231.977 185.198 234.485 181.435 243.682C185.198 234.485 196.487 242.01 199.831 234.067Z" stroke="#F0EBF9" stroke-width="3" stroke-miterlimit="10" stroke-linecap="round" stroke-linejoin="round"/>
<path d="M209.865 224.453C214.465 229.051 220.318 220.273 225.753 225.707C220.318 220.273 229.098 214.421 224.499 209.823C231.188 209.823 229.098 199.373 236.623 199.373C228.68 199.373 231.188 188.923 224.499 188.923C229.098 184.325 220.318 178.473 225.753 173.039C220.318 178.473 214.465 169.695 209.865 174.293C209.865 167.605 199.413 169.695 199.413 162.17C199.413 170.113 188.961 167.605 188.961 174.293C184.362 169.695 178.509 178.473 173.073 173.039C178.509 178.473 169.729 184.325 174.328 188.923C167.638 188.923 169.729 199.373 162.203 199.373C170.147 199.373 167.638 209.823 174.328 209.823C169.729 214.421 178.509 220.273 173.073 225.707C178.509 220.273 184.362 229.051 188.961 224.453C188.961 231.141 199.413 229.051 199.413 236.576C199.831 229.051 209.865 231.141 209.865 224.453Z" stroke="#F0EBF9" stroke-width="3" stroke-miterlimit="10" stroke-linecap="round" stroke-linejoin="round"/>
<path d="M199.831 220.273C201.922 225.289 208.611 220.273 210.702 226.125C208.193 220.691 216.555 219.019 214.465 214.421C219.482 216.511 220.736 208.569 226.171 210.659C220.736 208.151 225.335 201.881 220.318 199.791C225.335 197.701 220.318 191.013 226.171 188.923C220.736 191.431 219.064 183.071 214.465 185.161C216.555 180.145 208.611 178.891 210.702 173.457C208.193 178.891 201.922 174.293 199.831 179.309C197.741 174.293 191.051 179.309 188.961 173.457C191.469 178.891 183.108 180.563 185.198 185.161C180.181 183.071 178.927 191.013 173.491 188.923C178.927 191.431 174.328 197.701 179.345 199.791C174.328 201.881 179.345 208.569 173.491 210.659C178.927 208.151 180.599 216.511 185.198 214.421C183.108 219.437 191.051 220.691 188.961 226.125C191.051 220.691 197.741 225.289 199.831 220.273Z" stroke="#F0EBF9" stroke-width="3" stroke-miterlimit="10" stroke-linecap="round" stroke-linejoin="round"/>
<path d="M199.831 217.765C209.991 217.765 218.227 209.531 218.227 199.373C218.227 189.215 209.991 180.981 199.831 180.981C189.671 180.981 181.435 189.215 181.435 199.373C181.435 209.531 189.671 217.765 199.831 217.765Z" stroke="#F0EBF9" stroke-width="3" stroke-miterlimit="10" stroke-linecap="round" stroke-linejoin="round"/>
</g>
<defs>
<filter id="filter0_f" x="0.5" y="0.5" width="398.663" height="399" filterUnits="userSpaceOnUse" color-interpolation-filters="sRGB">
<feFlood flood-opacity="0" result="BackgroundImageFix"/>
<feBlend mode="normal" in="SourceGraphic" in2="BackgroundImageFix" result="shape"/>
<feGaussianBlur stdDeviation="1.5" result="effect1_foregroundBlur"/>
</filter>
</defs>
</svg>
